# xmcd
#
# Track frame offsets: 
#        150
#        34377
#        62770
#        91505
#        113228
#        138068
#        160267
#        187376
#        208786
#        230802
#        260050
#
# Disc length: 3686 seconds
#
# Revision: 0
# Processed by: cddbd v1.5.1PL0 Copyright (c) Steve Scherf et al.
# Submitted via: ExactAudioCopy v0.95a4
#
DISCID=a10e640b
DTITLE=Stephen P. Finster - Cold hands - Warm Heart
DYEAR=1900
DGENRE=Blues
TTITLE0=Wake Up Now
TTITLE1=Jet Stream
TTITLE2=Last Shoe
TTITLE3=Snake Charmer's Boogie
TTITLE4=There She Goes
TTITLE5=don't Ask
TTITLE6=Fly
TTITLE7=Quitting Time
TTITLE8=Frozen Finger Jam
TTITLE9=Two Minds
TTITLE10=Less Is More
EXTD=
EXTT0=
EXTT1=
EXTT2=
EXTT3=
EXTT4=
EXTT5=
EXTT6=
EXTT7=
EXTT8=
EXTT9=
EXTT10=
PLAYORDER=
